<svg id="Laag_1" xmlns="http://www.w3.org/2000/svg" viewBox="-27 299.1 150.3 125.8"><style>.st0{display:none;fill:#fff}.st1{fill:#005191}.st2{fill:#c3d8ed}.st3{display:none}.st4{display:inline}.st5{display:none;enable-background:new}</style><path class="st0" d="M-64.2 288.6h223.6v148.2H-64.2z"/><path class="st1" d="M97.3 424.7c-2.4 0-4.2-1.9-4.2-4.2v-17.9l-6.8-.9c0-10.2 1.7-48 6.8-53.1-2.2-2.7-4.2-6.8-4.2-11.9 0-11 5.8-15.6 15.9-15.6 10.2 0 15.9 4.6 15.9 15.6 0 5.1-2 9.1-4.2 11.9 5.1 5.1 6.8 43 6.8 53.1l-6.8.9v17.9c0 2.4-1.9 4.2-4.2 4.2h-15zm-35.6-.2c-2.4 0-3.4-1.7-3.4-4.2v-35.6s-5-.7-5-8.3v-16.9c0-4.1.3-10.8 8.6-10.8H73c8.3 0 9 6.7 9 10.8v16.8c0 7.6-5 8.3-5 8.3v35.6c0 2.5-1.2 4.2-3.4 4.2H61.7v.1zm5.8-77.4c-4.1 0-7.5-3.4-7.5-7.5s3.4-7.5 7.5-7.5 7.5 3.4 7.5 7.5-3.3 7.5-7.5 7.5m-83.2 77.6c-3.2 0-4.6-2.4-4.6-5.8v-48.4s-6.8-1-6.8-11.3v-22.9c0-5.6.3-14.7 11.7-14.7H-.3c11.3 0 12.2 9.1 12.2 14.7v22.8c0 10.3-6.8 11.3-6.8 11.3v48.4c0 3.4-1.7 5.8-4.6 5.8h-16.2v.1zm8-105.3c-5.6 0-10.2-4.6-10.2-10.2 0-5.5 4.6-10.1 10.2-10.1s10.2 4.6 10.2 10.2c0 5.5-4.6 10.1-10.2 10.1m112.5 0c-5.6 0-10.2-4.6-10.2-10.2s4.6-10.2 10.2-10.2 10.2 4.6 10.2 10.2c-.1 5.6-4.6 10.2-10.2 10.2"/><path class="st2" d="M25.6 424.8c-2.5 0-3.6-1.9-3.6-4.5V382s-5.4-.8-5.4-9v-18c0-4.4.3-11.6 9.2-11.6h11.9c9 0 9.6 7.2 9.6 11.6v18.1c0 8.2-5.3 9-5.3 9v38.3c0 2.7-1.3 4.5-3.6 4.5H25.6v-.1zm6.3-83.2c-4.4 0-8-3.6-8-8s3.6-8 8-8 8 3.6 8 8c.1 4.4-3.6 8-8 8"/><g class="st3"><path class="st4" d="M405.4 364.9v-4.4c0-4.8 3-5.7 7.2-5.7s7.2.9 7.2 5.7v4.4c0 4.8-3 5.7-7.2 5.7s-7.2-.9-7.2-5.7zm10.2-.4V361c0-2.3-.8-2.5-2.9-2.5-2.2 0-2.9.2-2.9 2.5v3.5c.1 2.3.8 2.6 2.9 2.6 2.1-.1 2.9-.3 2.9-2.6zm15.9-9.6h4.3l-4.6 15.7h-6.5l-4.4-15.7h4.2l3.4 12.1h.1l3.5-12.1zm9.5 5.9h1.3l4-5.9h5.1l-5.5 7.7 6 8h-5.2l-4.4-6.1H441v6.1h-4.2v-15.7h4.2v5.9z"/></g><g class="st5"><path class="st4" d="M-22.6 483.1h-4.1v-16.3h7.1c1.2 0 2.3.1 3.1.2.8.2 1.5.4 1.9.8.5.4.8 1 1 1.7.2.7.3 1.6.3 2.7v1c0 1.1-.1 2-.3 2.7-.2.7-.5 1.3-1 1.7-.5.4-1.1.7-1.9.8-.8.1-1.8.2-2.9.2h-3.2v4.5zm2.7-7.6c.5 0 .9 0 1.3-.1.3-.1.6-.2.7-.4.2-.2.3-.4.4-.7.1-.3.1-.6.1-1.1v-1.1c0-.4 0-.8-.1-1.1-.1-.3-.2-.5-.4-.7-.2-.2-.4-.3-.8-.3-.3-.1-.7-.1-1.3-.1h-2.7v5.5h2.8zm19.1 7.6h-3.6V482h-.1c-.3.5-.6.8-1 1-.4.2-1.1.3-2 .3h-.4c-.8 0-1.4-.1-1.9-.2s-.9-.3-1.2-.6c-.3-.3-.5-.6-.6-1.1s-.2-1-.2-1.7v-.5c0-.6.1-1.2.2-1.6.1-.4.4-.8.7-1.1.3-.3.8-.5 1.3-.6.5-.1 1.2-.2 1.9-.2h.2c.8 0 1.5.1 1.9.2.5.1.8.4 1 .7h.1v-1.9c0-.2-.1-.4-.2-.5-.1-.1-.3-.2-.5-.3-.2 0-.5-.1-.9-.1h-.3c-.7 0-1.1.1-1.3.2-.2.1-.3.3-.3.6v.3h-3.5v-.2c0-.7.1-1.2.3-1.7.2-.4.5-.8.9-1 .4-.2.9-.4 1.6-.5.7-.1 1.5-.1 2.6-.1h.4c1.1 0 1.9.1 2.5.2.6.1 1.1.4 1.5.7.4.4.6.9.7 1.5s.2 1.5.2 2.6v6.7zm-5.4-2.3c.4 0 .7 0 .9-.1.2 0 .4-.1.5-.2l.3-.3c0-.1.1-.3.1-.5v-.4c0-.2 0-.4-.1-.5 0-.1-.1-.3-.3-.3s-.3-.1-.5-.2h-1.2c-.4 0-.7 0-1 .1-.2 0-.4.1-.6.2s-.2.2-.3.3c0 .2-.1.3-.1.5v.4c0 .2 0 .4.1.5 0 .1.1.3.3.3.1.1.3.1.6.2h1.3zm11.6 2.3H1.6v-11.5h3.7v2.1h.1c.2-.8.6-1.4 1-1.7.5-.4 1.2-.5 2.1-.5h.1c.5 0 1 .1 1.4.2.4.1.6.3.8.6.2.3.4.7.4 1.1.1.5.1 1 .1 1.7v1.7H8.1v-.8c0-.5-.1-.9-.2-1.1-.2-.2-.5-.3-.9-.3h-.3c-.5 0-.9.2-1.1.5-.2.3-.3.9-.3 1.8v6.2zm12.5.2c-1 0-1.9-.1-2.6-.3-.7-.2-1.2-.5-1.6-.9-.4-.4-.7-.9-.8-1.6-.2-.7-.2-1.5-.2-2.5v-1.3c0-1.1.1-1.9.3-2.6.2-.7.5-1.2.9-1.6s1-.7 1.6-.8c.7-.2 1.5-.2 2.4-.2h.5c1 0 1.9.1 2.5.2s1.2.4 1.6.8c.4.4.7.9.9 1.5s.3 1.5.3 2.5v1.8h-7.4v.5c0 .4 0 .7.1 1 0 .2.1.4.3.6.1.1.3.2.6.3.2 0 .6.1 1 .1h.3c.7 0 1.2-.1 1.4-.2.2-.1.3-.4.3-.9v-.2h3.5v.3c0 .7-.1 1.3-.3 1.7-.2.5-.5.9-.9 1.1-.4.3-.9.5-1.6.6s-1.4.2-2.4.2h-.7zm2.3-7.2v-.3c0-.4 0-.6-.1-.9s-.1-.4-.3-.6c-.1-.1-.3-.2-.6-.3-.3-.1-.6-.1-1-.1H18c-.4 0-.7 0-1 .1l-.6.3c-.1.2-.2.4-.3.7 0 .3-.1.7-.1 1.1h4.2zm17.2 7h-3.8v-6.5c0-.4 0-.8-.1-1.1 0-.3-.1-.5-.3-.7-.1-.2-.3-.3-.5-.3-.2-.1-.5-.1-.9-.1h-.2c-.7 0-1.3.2-1.5.5-.3.3-.4.9-.4 1.8v6.5h-3.8v-11.5h3.8v1.7c.3-.7.7-1.2 1.3-1.5.5-.3 1.3-.5 2.2-.5h.2c.8 0 1.5.1 2 .2.5.2 1 .4 1.3.8.3.4.5.8.7 1.4.1.6.2 1.4.2 2.3v7zm7.1.2c-.8 0-1.5-.1-2.1-.2-.5-.1-.9-.4-1.2-.7-.3-.3-.5-.8-.6-1.4-.1-.6-.2-1.4-.2-2.3v-4.3h-1.5v-2.7h1.5v-3h3.7v3h4.7v2.7H44v5.1c0 .3.1.5.1.6l.3.3h.7c.2 0 .4 0 .5-.1.1 0 .2-.1.3-.3.1-.1.1-.3.1-.6v-1.5h2.9v1.1c0 .8-.1 1.5-.2 2s-.3 1-.7 1.3c-.3.3-.8.5-1.3.7-.5.1-1.3.2-2.1.2h-.1zm11.2 0c-1.1 0-2-.1-2.6-.2s-1.2-.3-1.6-.5c-.4-.3-.6-.6-.7-1-.1-.4-.2-.9-.2-1.5v-.5h3.5v.2c0 .2 0 .4.1.5 0 .1.1.2.2.3.1.1.3.1.5.2s.5 0 .8 0h.5c.7 0 1.1-.1 1.3-.2.2-.1.3-.4.3-.8v-.1c0-.2 0-.4-.1-.5 0-.1-.2-.3-.3-.4-.2-.1-.5-.2-.8-.3s-.9-.1-1.5-.2c-.9-.1-1.6-.2-2.2-.3-.6-.1-1-.3-1.3-.6-.3-.3-.5-.6-.7-1s-.2-.9-.2-1.5v-.2c0-.6.1-1.1.2-1.5.1-.4.4-.8.7-1 .4-.3.8-.5 1.4-.6.6-.1 1.3-.2 2.2-.2h.5c1.1 0 2 .1 2.7.2.7.1 1.2.3 1.6.5.4.2.6.6.8 1 .1.4.2.9.2 1.5v.3h-3.4v-.1c0-.4-.1-.6-.3-.7-.2-.1-.6-.2-1.2-.2h-.3c-.7 0-1.1.1-1.3.2-.2.1-.3.3-.3.7v.2c0 .1 0 .3.1.4 0 .1.1.2.3.2.2.1.4.1.6.2.3 0 .7.1 1.1.1 1.1.1 1.9.2 2.6.3.7.2 1.2.4 1.6.6s.6.6.8 1c.1.4.2.9.2 1.5v.4c0 .7-.1 1.3-.3 1.7-.2.5-.5.8-.8 1.1-.4.3-.9.5-1.6.6-.7.1-1.5.2-2.4.2h-.7zm25-.2H77v-1.4c-.2.4-.4.6-.6.8-.2.2-.5.4-.8.5-.3.1-.6.2-.9.2-.3 0-.7.1-1 .1h-.2c-.8 0-1.5-.1-2.1-.3-.6-.2-1-.5-1.3-.9-.3-.4-.6-1-.7-1.7-.1-.7-.2-1.6-.2-2.6v-1c0-1 .1-1.9.2-2.6.1-.7.4-1.2.7-1.7.3-.4.8-.7 1.3-.9.5-.2 1.2-.3 2-.3h.4c.7 0 1.4.1 1.9.3.5.2.9.6 1.2 1.2v-6.1h3.8v16.4zm-5.5-2.6c.4 0 .7 0 .9-.1.2-.1.4-.2.6-.4.1-.2.2-.5.3-.8.1-.3.1-.8.1-1.3v-1c0-.5 0-1-.1-1.3-.1-.3-.2-.6-.3-.8-.1-.2-.3-.3-.6-.4-.2-.1-.5-.1-.9-.1h-.4c-.4 0-.7 0-.9.1-.2.1-.4.2-.6.4-.1.2-.2.5-.3.8-.1.3-.1.8-.1 1.3v1c0 .5 0 1 .1 1.3.1.3.2.6.3.8.1.2.3.3.6.4.2.1.5.1.9.1h.4zm11.7-10.1c0 .7-.1 1.3-.2 1.8s-.3.9-.6 1.2c-.3.3-.7.6-1.2.7s-1.1.2-1.9.2v-1.9c.6 0 1-.1 1.2-.4.2-.3.3-.7.3-1.2v-.2h-1.1v-3.7h3.5v3.5zm14.5 12.7h-12v-16.3h11.7v3.2h-7.6v3.3h7.1v3h-7.1v3.5h7.8v3.3zm13.4 0H111v-6.5c0-.4 0-.8-.1-1.1 0-.3-.1-.5-.3-.7-.1-.2-.3-.3-.5-.3-.2-.1-.5-.1-.9-.1h-.2c-.7 0-1.3.2-1.5.5-.3.3-.4.9-.4 1.8v6.5h-3.8v-11.5h3.8v1.7c.3-.7.7-1.2 1.3-1.5.5-.3 1.3-.5 2.2-.5h.2c.8 0 1.5.1 2 .2.5.2 1 .4 1.3.8.3.4.5.8.7 1.4.1.6.2 1.4.2 2.3v7zm6.9 0h-3.8v-8.8h-1.5v-2.7h1.5v-.9c0-.8.1-1.4.2-1.9.2-.5.4-.9.7-1.3.3-.3.8-.6 1.3-.7.5-.1 1.2-.2 1.9-.2h1.1c.4 0 .7.1 1 .1v2.7h-1c-.3 0-.5 0-.7.1s-.3.1-.5.2c-.1.1-.2.3-.2.5s-.1.5-.1.8v.6h2.6v2.7h-2.6v8.8zm14.4 0h-3.6V482h-.1c-.3.5-.6.8-1 1-.4.2-1.1.3-2 .3h-.4c-.8 0-1.4-.1-1.9-.2s-.9-.3-1.2-.6c-.3-.3-.5-.6-.6-1.1s-.2-1-.2-1.7v-.5c0-.6.1-1.2.2-1.6.1-.4.4-.8.7-1.1.3-.3.8-.5 1.3-.6.5-.1 1.2-.2 1.9-.2h.2c.8 0 1.5.1 1.9.2.5.1.8.4 1 .7h.1v-1.9c0-.2-.1-.4-.2-.5-.1-.1-.3-.2-.5-.3-.2 0-.5-.1-.9-.1h-.3c-.7 0-1.1.1-1.3.2-.2.1-.3.3-.3.6v.3h-3.5v-.2c0-.7.1-1.2.3-1.7.2-.4.5-.8.9-1 .4-.2.9-.4 1.6-.5.7-.1 1.5-.1 2.6-.1h.4c1.1 0 1.9.1 2.5.2.6.1 1.1.4 1.5.7.4.4.6.9.7 1.5s.2 1.5.2 2.6v6.7zm-5.3-2.3c.4 0 .7 0 .9-.1.2 0 .4-.1.5-.2l.3-.3c0-.1.1-.3.1-.5v-.4c0-.2 0-.4-.1-.5 0-.1-.1-.3-.3-.3s-.3-.1-.5-.2h-1.2c-.4 0-.7 0-1 .1-.2 0-.4.1-.6.2s-.2.2-.3.3c0 .2-.1.3-.1.5v.4c0 .2 0 .4.1.5 0 .1.1.3.3.3.1.1.3.1.6.2h1.3zm19.2 2.3h-3.8v-6.5c0-.4 0-.8-.1-1.1 0-.3-.1-.5-.3-.7-.1-.2-.3-.3-.5-.3-.2-.1-.5-.1-.9-.1h-.2c-.7 0-1.3.2-1.5.5-.3.3-.4.9-.4 1.8v6.5h-3.8v-11.5h3.8v1.7c.3-.7.7-1.2 1.3-1.5.5-.3 1.3-.5 2.2-.5h.2c.8 0 1.5.1 2 .2.5.2 1 .4 1.3.8.3.4.5.8.7 1.4.1.6.2 1.4.2 2.3v7zm7.1.2c-.8 0-1.5-.1-2.1-.2-.5-.1-.9-.4-1.2-.7-.3-.3-.5-.8-.6-1.4-.1-.6-.2-1.4-.2-2.3v-4.3h-1.5v-2.7h1.5v-3h3.7v3h4.7v2.7h-4.8v5.1c0 .3.1.5.1.6l.3.3h.7c.2 0 .4 0 .5-.1.1 0 .2-.1.3-.3.1-.1.1-.3.1-.6v-1.5h2.9v1.1c0 .8-.1 1.5-.2 2s-.3 1-.7 1.3c-.3.3-.8.5-1.3.7-.5.1-1.3.2-2.1.2h-.1zm11.3 0c-1.1 0-2-.1-2.6-.2s-1.2-.3-1.6-.5c-.4-.3-.6-.6-.7-1-.1-.4-.2-.9-.2-1.5v-.5h3.5v.2c0 .2 0 .4.1.5 0 .1.1.2.2.3.1.1.3.1.5.2s.5 0 .8 0h.5c.7 0 1.1-.1 1.3-.2.2-.1.3-.4.3-.8v-.1c0-.2 0-.4-.1-.5 0-.1-.2-.3-.3-.4-.2-.1-.5-.2-.8-.3s-.9-.1-1.5-.2c-.9-.1-1.6-.2-2.2-.3-.6-.1-1-.3-1.3-.6-.3-.3-.5-.6-.7-1s-.2-.9-.2-1.5v-.2c0-.6.1-1.1.2-1.5.1-.4.4-.8.7-1 .4-.3.8-.5 1.4-.6.6-.1 1.3-.2 2.2-.2h.5c1.1 0 2 .1 2.7.2.7.1 1.2.3 1.6.5.4.2.6.6.8 1 .1.4.2.9.2 1.5v.3h-3.4v-.1c0-.4-.1-.6-.3-.7-.2-.1-.6-.2-1.2-.2h-.3c-.7 0-1.1.1-1.3.2-.2.1-.3.3-.3.7v.2c0 .1 0 .3.1.4 0 .1.1.2.3.2.2.1.4.1.6.2.3 0 .7.1 1.1.1 1.1.1 1.9.2 2.6.3.7.2 1.2.4 1.6.6s.6.6.8 1c.1.4.2.9.2 1.5v.4c0 .7-.1 1.3-.3 1.7-.2.5-.5.8-.8 1.1-.4.3-.9.5-1.6.6-.7.1-1.5.2-2.4.2h-.7zm23-.2H186l-5.1-16.3h4.4l3.6 12.9h.1l3.5-12.9h4.3l-5.4 16.3zm11.2-13.2h-3.8v-3h3.8v3zm0 13.2h-3.8v-11.5h3.8v11.5zm7.5.2c-1 0-1.9-.1-2.6-.3-.7-.2-1.2-.5-1.6-.9s-.7-.9-.9-1.6c-.2-.7-.2-1.5-.2-2.5v-1.3c0-1 .1-1.8.3-2.5.2-.7.5-1.2.9-1.6.4-.4 1-.7 1.7-.9.7-.2 1.6-.3 2.6-.3h.6c1 0 1.8.1 2.5.2.6.2 1.2.4 1.5.7.4.3.7.7.8 1.2.2.5.2 1.1.2 1.8v.5h-3.5v-.3c0-.5-.1-.9-.3-1.1s-.6-.3-1.2-.3h-.4c-.4 0-.7 0-.9.1-.2.1-.4.2-.5.4-.1.2-.2.4-.3.8 0 .3-.1.7-.1 1.2v1.3c0 .5 0 .9.1 1.2 0 .3.1.6.3.7s.3.3.6.4c.2.1.5.1.9.1h.4c.6 0 1-.1 1.2-.3.2-.2.3-.6.3-1.2v-.2h3.5v.4c0 .8-.1 1.4-.2 1.9-.2.5-.4 1-.8 1.3-.4.3-.9.6-1.6.7-.7.2-1.5.2-2.5.2h-.8zm12.5 0c-.8 0-1.5-.1-2.1-.2-.5-.1-.9-.4-1.2-.7-.3-.3-.5-.8-.6-1.4-.1-.6-.2-1.4-.2-2.3v-4.3H217v-2.7h1.5v-3h3.7v3h4.7v2.7h-4.8v5.1c0 .3.1.5.1.6l.3.3h.7c.2 0 .4 0 .5-.1.1 0 .2-.1.3-.3.1-.1.1-.3.1-.6v-1.5h2.9v1.1c0 .8-.1 1.5-.2 2s-.3 1-.7 1.3c-.3.3-.8.5-1.3.7-.5.1-1.3.2-2.1.2h-.1zm10.2-13.4H229v-3h3.8v3zm0 13.2H229v-11.5h3.8v11.5zm20.8 0h-3.8v-6.5c0-.4 0-.8-.1-1.1 0-.3-.1-.5-.2-.7-.1-.2-.3-.3-.5-.3-.2-.1-.5-.1-.8-.1h-.2c-.7 0-1.1.1-1.3.4-.2.3-.3.8-.3 1.6v6.7h-3.8v-6.5c0-.9-.1-1.5-.3-1.8-.2-.3-.6-.4-1.1-.4h-.2c-.4 0-.7 0-.9.1-.2.1-.4.2-.5.4-.1.2-.2.4-.3.7 0 .3-.1.6-.1 1.1v6.5h-3.8v-11.5h3.8v1.7c.2-.6.6-1 1.1-1.4.5-.4 1.2-.5 2.2-.5h.2c1 0 1.8.2 2.3.5.6.3.9.9 1.2 1.6.3-.7.7-1.2 1.2-1.6.6-.4 1.3-.5 2.2-.5h.2c.8 0 1.4.1 1.9.2.5.2.9.4 1.2.8.3.4.5.8.6 1.4.1.6.2 1.4.2 2.3v6.9zm7.3.2c-1 0-1.9-.1-2.6-.3-.7-.2-1.2-.5-1.6-.9-.4-.4-.7-.9-.8-1.6-.2-.7-.2-1.5-.2-2.5v-1.3c0-1.1.1-1.9.3-2.6.2-.7.5-1.2.9-1.6.4-.4 1-.7 1.6-.8.7-.2 1.5-.2 2.4-.2h.5c1 0 1.9.1 2.5.2s1.2.4 1.6.8c.4.4.7.9.9 1.5s.3 1.5.3 2.5v1.8h-7.4v.5c0 .4 0 .7.1 1 0 .2.1.4.3.6.1.1.3.2.6.3.2 0 .6.1 1 .1h.3c.7 0 1.2-.1 1.4-.2.2-.1.3-.4.3-.9v-.2h3.5v.3c0 .7-.1 1.3-.3 1.7-.2.5-.5.9-.9 1.1s-.9.5-1.6.6-1.4.2-2.4.2h-.7zm2.3-7.2v-.3c0-.4 0-.6-.1-.9 0-.2-.1-.4-.3-.6-.1-.1-.3-.2-.6-.3-.3-.1-.6-.1-1-.1h-.2c-.4 0-.7 0-1 .1l-.6.3c-.1.2-.2.4-.3.7 0 .3-.1.7-.1 1.1h4.2zm10.5 7.2c-1.1 0-2-.1-2.6-.2-.7-.1-1.2-.3-1.6-.5-.4-.3-.6-.6-.7-1-.1-.4-.2-.9-.2-1.5v-.5h3.5v.2c0 .2 0 .4.1.5 0 .1.1.2.2.3.1.1.3.1.5.2s.5 0 .8 0h.5c.7 0 1.1-.1 1.3-.2.2-.1.3-.4.3-.8v-.1c0-.2 0-.4-.1-.5 0-.1-.2-.3-.3-.4-.2-.1-.5-.2-.8-.3s-.9-.1-1.5-.2c-.9-.1-1.6-.2-2.2-.3-.6-.1-1-.3-1.3-.6s-.5-.6-.7-1-.2-.9-.2-1.5v-.2c0-.6.1-1.1.2-1.5.1-.4.4-.8.7-1 .4-.3.8-.5 1.4-.6.6-.1 1.3-.2 2.2-.2h.5c1.1 0 2 .1 2.7.2.7.1 1.2.3 1.6.5.4.2.6.6.8 1 .1.4.2.9.2 1.5v.3h-3.4v-.1c0-.4-.1-.6-.3-.7-.2-.1-.6-.2-1.2-.2h-.3c-.7 0-1.1.1-1.3.2-.2.1-.3.3-.3.7v.2c0 .1 0 .3.1.4 0 .1.1.2.3.2s.4.1.6.2c.3 0 .7.1 1.1.1 1.1.1 1.9.2 2.6.3.7.2 1.2.4 1.6.6s.6.6.8 1c.1.4.2.9.2 1.5v.4c0 .7-.1 1.3-.3 1.7-.2.5-.5.8-.8 1.1-.4.3-.9.5-1.6.6-.7.1-1.5.2-2.4.2h-.7zm25-.2H295v-1.4c-.2.4-.4.6-.6.8-.2.2-.5.4-.8.5-.3.1-.6.2-.9.2-.3 0-.7.1-1 .1h-.2c-.8 0-1.5-.1-2.1-.3-.5-.2-1-.5-1.3-.9-.3-.4-.6-1-.7-1.7s-.2-1.6-.2-2.6v-1c0-1 .1-1.9.2-2.6s.4-1.2.7-1.7c.3-.4.8-.7 1.3-.9.5-.2 1.2-.3 2-.3h.4c.7 0 1.4.1 1.9.3.5.2.9.6 1.2 1.2v-6.1h3.8v16.4zm-5.5-2.6c.4 0 .7 0 .9-.1.2-.1.4-.2.6-.4.1-.2.2-.5.3-.8.1-.3.1-.8.1-1.3v-1c0-.5 0-1-.1-1.3-.1-.3-.2-.6-.3-.8-.1-.2-.3-.3-.6-.4-.2-.1-.5-.1-.9-.1h-.4c-.4 0-.7 0-.9.1-.2.1-.4.2-.6.4-.1.2-.2.5-.3.8-.1.3-.1.8-.1 1.3v1c0 .5 0 1 .1 1.3.1.3.2.6.3.8.1.2.3.3.6.4.2.1.5.1.9.1h.4zm13 2.8c-1 0-1.9-.1-2.6-.3-.7-.2-1.2-.5-1.6-.9-.4-.4-.7-.9-.8-1.6-.2-.7-.2-1.5-.2-2.5v-1.3c0-1.1.1-1.9.3-2.6.2-.7.5-1.2.9-1.6.4-.4 1-.7 1.6-.8.7-.2 1.5-.2 2.4-.2h.5c1 0 1.9.1 2.5.2s1.2.4 1.6.8c.4.4.7.9.9 1.5.2.6.3 1.5.3 2.5v1.8h-7.4v.5c0 .4 0 .7.1 1 0 .2.1.4.3.6s.3.2.6.3.6.1 1 .1h.3c.7 0 1.2-.1 1.4-.2.2-.1.3-.4.3-.9v-.2h3.5v.3c0 .7-.1 1.3-.3 1.7-.2.5-.5.9-.9 1.1-.4.3-.9.5-1.6.6s-1.4.2-2.4.2h-.7zm2.3-7.2v-.3c0-.4 0-.6-.1-.9s-.1-.4-.3-.6c-.1-.1-.3-.2-.6-.3s-.6-.1-1-.1h-.2c-.4 0-.7 0-1 .1s-.4.2-.6.3c-.1.2-.2.4-.3.7 0 .3-.1.7-.1 1.1h4.2zm15.4 7h-3.8v-16.3h3.8v16.3zm13.2 0h-3.6V482h-.1c-.3.5-.6.8-1 1s-1.1.3-2 .3h-.4c-.8 0-1.4-.1-1.9-.2s-.9-.3-1.2-.6c-.3-.3-.5-.6-.6-1.1s-.2-1-.2-1.7v-.5c0-.6.1-1.2.2-1.6.1-.4.4-.8.7-1.1.3-.3.8-.5 1.3-.6.5-.1 1.2-.2 1.9-.2h.2c.8 0 1.5.1 1.9.2.5.1.8.4 1 .7h.1v-1.9c0-.2-.1-.4-.2-.5-.1-.1-.3-.2-.5-.3-.2 0-.5-.1-.9-.1h-.3c-.7 0-1.1.1-1.3.2-.2.1-.3.3-.3.6v.3h-3.5v-.2c0-.7.1-1.2.3-1.7.2-.4.5-.8.9-1 .4-.2.9-.4 1.6-.5.7-.1 1.5-.1 2.6-.1h.4c1.1 0 1.9.1 2.5.2.6.1 1.1.4 1.5.7.4.4.6.9.7 1.5.1.7.2 1.5.2 2.6v6.7zm-5.4-2.3c.4 0 .7 0 .9-.1.2 0 .4-.1.5-.2l.3-.3c.1-.1.1-.3.1-.5v-.4c0-.2 0-.4-.1-.5s-.1-.3-.3-.3-.3-.1-.5-.2h-1.2c-.4 0-.7 0-1 .1-.2 0-.4.1-.5.2l-.3.3c-.1.1-.1.3-.1.5v.4c0 .2 0 .4.1.5s.1.3.3.3c.1.1.3.1.6.2h1.2zm27.3 2.3h-4.1v-2.3c0-.6 0-1.1-.1-1.5-.1-.4-.2-.6-.4-.8-.2-.2-.5-.3-.9-.4-.4-.1-.9-.1-1.6-.1h-2.2v5.1h-4.1v-16.3h7.9c1.1 0 2.1.1 2.8.3.7.2 1.3.5 1.7.8s.7.9.8 1.5c.2.6.2 1.3.2 2.2v.4c0 1.3-.2 2.2-.5 2.9s-1 1.1-1.8 1.3v.1c.5.1.9.2 1.2.4s.5.4.7.7c.2.3.3.7.4 1.2s.1 1.1.1 1.9v2.6zm-6.5-8.1c.5 0 .9 0 1.2-.1.3-.1.6-.2.7-.4s.3-.4.4-.7c.1-.3.1-.7.1-1.1v-.5c0-.5 0-.8-.1-1.1-.1-.3-.2-.5-.4-.7s-.4-.3-.7-.3c-.3-.1-.7-.1-1.2-.1h-2.9v5h2.9zm14.1 8.3c-1.1 0-2-.1-2.7-.3-.7-.2-1.3-.5-1.7-.9-.4-.4-.7-.9-.9-1.6-.2-.7-.3-1.5-.3-2.5v-1.3c0-1 .1-1.8.3-2.5s.5-1.2.9-1.6c.4-.4 1-.7 1.7-.9.7-.2 1.6-.3 2.7-.3h.6c1.1 0 2 .1 2.7.3.7.2 1.3.5 1.7.9.4.4.7.9.9 1.6.2.7.3 1.5.3 2.5v1.3c0 1-.1 1.9-.3 2.5-.2.7-.5 1.2-.9 1.6-.4.4-1 .7-1.7.9-.7.2-1.6.3-2.7.3h-.6zm.5-2.8c.4 0 .7 0 .9-.1.2-.1.4-.2.6-.4.1-.2.2-.4.3-.7 0-.3.1-.7.1-1.2v-1.3c0-.5 0-.9-.1-1.2 0-.3-.1-.6-.3-.8-.1-.2-.3-.3-.6-.4-.2-.1-.5-.1-.9-.1h-.4c-.4 0-.7 0-.9.1-.2.1-.4.2-.6.4-.1.2-.2.4-.3.8-.1.3-.1.7-.1 1.2v1.3c0 .5 0 .9.1 1.2.1.3.2.6.3.7.1.2.3.3.6.4.2.1.5.1.9.1h.4zm19.1 2.6h-3.8v-1.7c-.3.7-.7 1.2-1.2 1.5-.6.3-1.3.5-2.2.5h-.2c-.8 0-1.4-.1-1.9-.2s-.9-.4-1.3-.8c-.3-.4-.5-.9-.7-1.5-.1-.6-.2-1.4-.2-2.3v-6.8h3.8v6.5c0 .5 0 .9.1 1.2s.1.5.3.7c.1.2.3.3.5.3.2.1.5.1.9.1h.2c.4 0 .7 0 .9-.1.2-.1.4-.2.6-.4.2-.2.3-.4.3-.7s.1-.7.1-1.1v-6.5h3.8v11.3zm7.1.2c-.8 0-1.5-.1-2.1-.2-.5-.1-.9-.4-1.2-.7s-.5-.8-.6-1.4c-.1-.6-.2-1.4-.2-2.3v-4.3h-1.5v-2.7h1.5v-3h3.7v3h4.7v2.7H393v5.1c0 .3.1.5.1.6l.3.3h.7c.2 0 .4 0 .5-.1.1 0 .2-.1.3-.3.1-.1.1-.3.1-.6v-1.5h2.9v1.1c0 .8-.1 1.5-.2 2s-.3 1-.7 1.3c-.3.3-.8.5-1.3.7s-1.3.2-2.1.2h-.3zm11.4 0c-1 0-1.9-.1-2.6-.3-.7-.2-1.2-.5-1.6-.9-.4-.4-.7-.9-.8-1.6-.2-.7-.2-1.5-.2-2.5v-1.3c0-1.1.1-1.9.3-2.6.2-.7.5-1.2.9-1.6.4-.4 1-.7 1.6-.8.7-.2 1.5-.2 2.4-.2h.5c1 0 1.9.1 2.5.2s1.2.4 1.6.8c.4.4.7.9.9 1.5.2.6.3 1.5.3 2.5v1.8h-7.4v.5c0 .4 0 .7.1 1 0 .2.1.4.3.6s.3.2.6.3.6.1 1 .1h.3c.7 0 1.2-.1 1.4-.2.2-.1.3-.4.3-.9v-.2h3.5v.3c0 .7-.1 1.3-.3 1.7-.2.5-.5.9-.9 1.1-.4.3-.9.5-1.6.6s-1.4.2-2.4.2h-.7zm2.3-7.2v-.3c0-.4 0-.6-.1-.9s-.1-.4-.3-.6c-.1-.1-.3-.2-.6-.3s-.6-.1-1-.1-.7 0-1 .1-.4.2-.6.3c-.1.2-.2.4-.3.7 0 .3-.1.7-.1 1.1h4zm19 2.8h-7v-3.4h7v3.4zm22.2-.4c0 .9-.1 1.7-.3 2.3-.2.6-.5 1.1-1 1.5-.5.4-1.1.6-1.8.8-.8.2-1.7.2-2.8.2h-.6c-1.6 0-2.9-.1-3.8-.2-1-.1-1.7-.3-2.2-.7-.5-.3-.8-.8-1-1.4-.2-.6-.2-1.4-.2-2.3v-.7h3.9v.6c0 .3 0 .6.1.8.1.2.2.4.4.5.2.1.5.2.9.3.4 0 .9.1 1.5.1h.5c.5 0 .9 0 1.3-.1.3-.1.6-.1.7-.3.2-.1.3-.3.3-.5.1-.2.1-.5.1-.8v-.3c0-.3 0-.5-.1-.8-.1-.2-.2-.4-.5-.6s-.6-.3-1.1-.4c-.5-.1-1.1-.2-1.9-.2-1.3-.1-2.4-.2-3.2-.5-.8-.2-1.4-.5-1.9-.9-.4-.4-.7-.9-.9-1.4s-.2-1.3-.2-2.1v-.4c0-.8.1-1.5.3-2s.5-1 .9-1.4 1.1-.6 1.8-.8 1.7-.3 2.9-.3h.7c1.4 0 2.6.1 3.4.2.9.2 1.5.4 2 .7.5.3.8.8.9 1.3.1.6.2 1.2.2 2v.7h-3.9v-.5c0-.3 0-.5-.1-.6-.1-.2-.2-.3-.4-.4-.2-.1-.4-.2-.8-.3-.3-.1-.8-.1-1.3-.1h-.5c-.5 0-.9 0-1.2.1-.3 0-.5.1-.7.2-.2.1-.3.2-.4.4-.1.2-.1.4-.1.7v.3c0 .3 0 .5.1.7.1.2.2.4.5.5.2.1.6.2 1.1.3.5.1 1.1.2 1.9.2 1.3.1 2.4.3 3.2.5.8.2 1.4.5 1.9.8.4.4.7.8.9 1.4s.2 1.3.2 2.1v.8zm17.4 4.6h-4.4l-.9-3.2h-6l-.9 3.2h-4.3l5.3-16.3h5.8l5.4 16.3zm-6.3-6.2l-2-7.1h-.1l-2.1 7.1h4.2zm15.3 6.2h-5.5l-5.1-16.3h4.4l3.6 12.9h.1l3.5-12.9h4.3l-5.3 16.3zm18.7 0h-12v-16.3H493v3.2h-7.6v3.3h7.1v3h-7.1v3.5h7.8v3.3zm18.6 0h-3.6V482h-.1c-.3.5-.6.8-1 1s-1.1.3-2 .3h-.4c-.8 0-1.4-.1-1.9-.2s-.9-.3-1.2-.6c-.3-.3-.5-.6-.6-1.1s-.2-1-.2-1.7v-.5c0-.6.1-1.2.2-1.6.1-.4.4-.8.7-1.1.3-.3.8-.5 1.3-.6.5-.1 1.2-.2 1.9-.2h.2c.8 0 1.5.1 1.9.2.5.1.8.4 1 .7h.1v-1.9c0-.2-.1-.4-.2-.5-.1-.1-.3-.2-.5-.3-.2 0-.5-.1-.9-.1h-.3c-.7 0-1.1.1-1.3.2-.2.1-.3.3-.3.6v.3h-3.5v-.2c0-.7.1-1.2.3-1.7.2-.4.5-.8.9-1 .4-.2.9-.4 1.6-.5.7-.1 1.5-.1 2.6-.1h.4c1.1 0 1.9.1 2.5.2.6.1 1.1.4 1.5.7.4.4.6.9.7 1.5.1.7.2 1.5.2 2.6v6.7zm-5.4-2.3c.4 0 .7 0 .9-.1.2 0 .4-.1.5-.2l.3-.3c.1-.1.1-.3.1-.5v-.4c0-.2 0-.4-.1-.5s-.1-.3-.3-.3-.3-.1-.5-.2h-1.2c-.4 0-.7 0-1 .1-.2 0-.4.1-.5.2l-.3.3c-.1.1-.1.3-.1.5v.4c0 .2 0 .4.1.5s.1.3.3.3c.1.1.3.1.6.2h1.2zm12.6 2.5c-1.1 0-2-.1-2.6-.2s-1.2-.3-1.6-.5c-.4-.3-.6-.6-.7-1-.1-.4-.2-.9-.2-1.5v-.5h3.5v.2c0 .2 0 .4.1.5 0 .1.1.2.2.3.1.1.3.1.5.2h1.3c.7 0 1.1-.1 1.3-.2.2-.1.3-.4.3-.8v-.1c0-.2 0-.4-.1-.5 0-.1-.2-.3-.3-.4-.2-.1-.5-.2-.8-.3-.4-.1-.9-.1-1.5-.2-.9-.1-1.6-.2-2.2-.3-.6-.1-1-.3-1.3-.6-.3-.3-.5-.6-.7-1-.1-.4-.2-.9-.2-1.5v-.2c0-.6.1-1.1.2-1.5.1-.4.4-.8.7-1 .4-.3.8-.5 1.4-.6.6-.1 1.3-.2 2.2-.2h.5c1.1 0 2 .1 2.7.2.7.1 1.2.3 1.6.5.4.2.6.6.8 1 .1.4.2.9.2 1.5v.3H521v-.1c0-.4-.1-.6-.3-.7-.2-.1-.6-.2-1.2-.2h-.3c-.7 0-1.1.1-1.3.2-.2.1-.3.3-.3.7v.2c0 .1 0 .3.1.4 0 .1.1.2.3.2.2.1.4.1.6.2.3 0 .7.1 1.1.1 1.1.1 1.9.2 2.6.3.7.2 1.2.4 1.6.6.4.3.6.6.8 1 .1.4.2.9.2 1.5v.4c0 .7-.1 1.3-.3 1.7-.2.5-.5.8-.8 1.1-.4.3-.9.5-1.6.6-.7.1-1.5.2-2.4.2h-.7zm11.6-.2h-3.8v-16.3h3.8v16.3zm9.5.2c-.8 0-1.5-.1-2-.3-.5-.2-.9-.6-1.3-1.3v1.4h-3.7v-16.3h3.8v6.1c.3-.6.7-.9 1.2-1.2s1.1-.3 1.9-.3h.4c.8 0 1.5.1 2 .3.5.2 1 .5 1.3.9.3.4.6 1 .7 1.7s.2 1.6.2 2.6v1c0 1-.1 1.9-.2 2.6-.1.7-.4 1.3-.7 1.7-.3.4-.8.7-1.3.9-.6.2-1.2.3-2.1.3h-.2zm-1.1-2.8c.4 0 .7 0 .9-.1.2-.1.4-.2.6-.4.1-.2.2-.5.3-.8.1-.3.1-.8.1-1.3v-1c0-.5 0-1-.1-1.3-.1-.3-.2-.6-.3-.8-.1-.2-.3-.3-.6-.4-.2-.1-.5-.1-.9-.1h-.4c-.4 0-.7 0-.9.1-.2.1-.4.2-.6.4-.1.2-.2.5-.3.8-.1.3-.1.8-.1 1.3v1c0 .5 0 1 .1 1.3.1.3.2.6.3.8.1.2.3.3.6.4.2.1.5.1.9.1h.4z"/></g></svg>